<mxfile host="app.diagrams.net" modified="2021-07-06T14:30:50.246Z" agent="5.0 (Windows NT 10.0; Win64; x64) AppleWebKit/537.36 (KHTML, like Gecko) Chrome/91.0.4472.124 Safari/537.36" etag="ZgtKCF28mAeLD2qxLSWW" version="14.8.4" type="github">
  <diagram id="JiR6QPC4Q0KIK74DOdjt" name="Page-1">
    <mxGraphModel dx="5145" dy="2490" grid="1" gridSize="10" guides="1" tooltips="1" connect="1" arrows="1" fold="1" page="1" pageScale="1" pageWidth="850" pageHeight="1100" math="0" shadow="0">
      <root>
        <mxCell id="0" />
        <mxCell id="1" parent="0" />
        <mxCell id="DLctD6dB3e4V0wkzgZix-45" value="UC" style="shape=umlFrame;whiteSpace=wrap;html=1;" vertex="1" parent="1">
          <mxGeometry x="-2540" y="-860" width="1320" height="1130" as="geometry" />
        </mxCell>
        <mxCell id="DLctD6dB3e4V0wkzgZix-46" value="Guest" style="shape=umlActor;verticalLabelPosition=bottom;verticalAlign=top;html=1;outlineConnect=0;" vertex="1" parent="1">
          <mxGeometry x="-2490" y="-760" width="30" height="60" as="geometry" />
        </mxCell>
        <mxCell id="DLctD6dB3e4V0wkzgZix-47" value="Employee" style="shape=umlActor;verticalLabelPosition=bottom;verticalAlign=top;html=1;outlineConnect=0;" vertex="1" parent="1">
          <mxGeometry x="-1270" y="-200" width="30" height="60" as="geometry" />
        </mxCell>
        <mxCell id="DLctD6dB3e4V0wkzgZix-48" value="Admin" style="shape=umlActor;verticalLabelPosition=bottom;verticalAlign=top;html=1;outlineConnect=0;" vertex="1" parent="1">
          <mxGeometry x="-1280" y="-720" width="30" height="60" as="geometry" />
        </mxCell>
        <mxCell id="DLctD6dB3e4V0wkzgZix-49" value="Customer" style="shape=umlActor;verticalLabelPosition=bottom;verticalAlign=top;html=1;outlineConnect=0;" vertex="1" parent="1">
          <mxGeometry x="-2490" y="-190" width="30" height="60" as="geometry" />
        </mxCell>
        <mxCell id="DLctD6dB3e4V0wkzgZix-50" value="" style="swimlane;startSize=0;" vertex="1" parent="1">
          <mxGeometry x="-2400" y="-810" width="1070" height="1020" as="geometry">
            <mxRectangle x="170" y="60" width="50" height="40" as="alternateBounds" />
          </mxGeometry>
        </mxCell>
        <mxCell id="DLctD6dB3e4V0wkzgZix-51" value="Manage Account" style="ellipse;whiteSpace=wrap;html=1;" vertex="1" parent="DLctD6dB3e4V0wkzgZix-50">
          <mxGeometry x="845" y="70" width="120" height="60" as="geometry" />
        </mxCell>
        <mxCell id="DLctD6dB3e4V0wkzgZix-52" value="Manage Laptop" style="ellipse;whiteSpace=wrap;html=1;" vertex="1" parent="DLctD6dB3e4V0wkzgZix-50">
          <mxGeometry x="855" y="630" width="120" height="55" as="geometry" />
        </mxCell>
        <mxCell id="DLctD6dB3e4V0wkzgZix-53" value="Manage cart" style="ellipse;whiteSpace=wrap;html=1;" vertex="1" parent="DLctD6dB3e4V0wkzgZix-50">
          <mxGeometry x="175" y="610" width="100" height="60" as="geometry" />
        </mxCell>
        <mxCell id="DLctD6dB3e4V0wkzgZix-54" value="View list account" style="ellipse;whiteSpace=wrap;html=1;" vertex="1" parent="DLctD6dB3e4V0wkzgZix-50">
          <mxGeometry x="840" y="260" width="130" height="50" as="geometry" />
        </mxCell>
        <mxCell id="DLctD6dB3e4V0wkzgZix-55" value="Edit account" style="ellipse;whiteSpace=wrap;html=1;" vertex="1" parent="DLctD6dB3e4V0wkzgZix-50">
          <mxGeometry x="610" y="40" width="125" height="50" as="geometry" />
        </mxCell>
        <mxCell id="DLctD6dB3e4V0wkzgZix-56" value="Delete account" style="ellipse;whiteSpace=wrap;html=1;" vertex="1" parent="DLctD6dB3e4V0wkzgZix-50">
          <mxGeometry x="675" y="240" width="120" height="60" as="geometry" />
        </mxCell>
        <mxCell id="DLctD6dB3e4V0wkzgZix-57" value="View list Laptop" style="ellipse;whiteSpace=wrap;html=1;" vertex="1" parent="DLctD6dB3e4V0wkzgZix-50">
          <mxGeometry x="590" y="630" width="110" height="40" as="geometry" />
        </mxCell>
        <mxCell id="DLctD6dB3e4V0wkzgZix-58" value="Update laptop" style="ellipse;whiteSpace=wrap;html=1;" vertex="1" parent="DLctD6dB3e4V0wkzgZix-50">
          <mxGeometry x="585" y="720" width="120" height="50" as="geometry" />
        </mxCell>
        <mxCell id="DLctD6dB3e4V0wkzgZix-59" value="Search Laptop" style="ellipse;whiteSpace=wrap;html=1;" vertex="1" parent="DLctD6dB3e4V0wkzgZix-50">
          <mxGeometry x="617.5" y="525" width="110" height="50" as="geometry" />
        </mxCell>
        <mxCell id="DLctD6dB3e4V0wkzgZix-60" value="Create new Laptop" style="ellipse;whiteSpace=wrap;html=1;" vertex="1" parent="DLctD6dB3e4V0wkzgZix-50">
          <mxGeometry x="705" y="805" width="120" height="50" as="geometry" />
        </mxCell>
        <mxCell id="DLctD6dB3e4V0wkzgZix-61" value="Delete Laptop" style="ellipse;whiteSpace=wrap;html=1;" vertex="1" parent="DLctD6dB3e4V0wkzgZix-50">
          <mxGeometry x="865" y="805" width="120" height="50" as="geometry" />
        </mxCell>
        <mxCell id="DLctD6dB3e4V0wkzgZix-62" value="Login" style="ellipse;whiteSpace=wrap;html=1;" vertex="1" parent="DLctD6dB3e4V0wkzgZix-50">
          <mxGeometry x="505" y="210" width="120" height="80" as="geometry" />
        </mxCell>
        <mxCell id="DLctD6dB3e4V0wkzgZix-63" value="Add Laptop to cart" style="ellipse;whiteSpace=wrap;html=1;" vertex="1" parent="DLctD6dB3e4V0wkzgZix-50">
          <mxGeometry x="160" y="730" width="130" height="50" as="geometry" />
        </mxCell>
        <mxCell id="DLctD6dB3e4V0wkzgZix-64" value="Update cart" style="ellipse;whiteSpace=wrap;html=1;" vertex="1" parent="DLctD6dB3e4V0wkzgZix-50">
          <mxGeometry x="315" y="720" width="140" height="50" as="geometry" />
        </mxCell>
        <mxCell id="DLctD6dB3e4V0wkzgZix-65" value="Delete laptop from cart" style="ellipse;whiteSpace=wrap;html=1;" vertex="1" parent="DLctD6dB3e4V0wkzgZix-50">
          <mxGeometry x="185" y="480" width="160" height="60" as="geometry" />
        </mxCell>
        <mxCell id="DLctD6dB3e4V0wkzgZix-66" value="View laptop List in cart" style="ellipse;whiteSpace=wrap;html=1;" vertex="1" parent="DLctD6dB3e4V0wkzgZix-50">
          <mxGeometry x="445" y="520" width="140" height="60" as="geometry" />
        </mxCell>
        <mxCell id="DLctD6dB3e4V0wkzgZix-67" value="Manage Order" style="ellipse;whiteSpace=wrap;html=1;" vertex="1" parent="DLctD6dB3e4V0wkzgZix-50">
          <mxGeometry x="145" y="370" width="120" height="65" as="geometry" />
        </mxCell>
        <mxCell id="DLctD6dB3e4V0wkzgZix-68" value="View list Order" style="ellipse;whiteSpace=wrap;html=1;" vertex="1" parent="DLctD6dB3e4V0wkzgZix-50">
          <mxGeometry x="132.5" y="240" width="145" height="60" as="geometry" />
        </mxCell>
        <mxCell id="DLctD6dB3e4V0wkzgZix-69" value="Make order" style="ellipse;whiteSpace=wrap;html=1;" vertex="1" parent="DLctD6dB3e4V0wkzgZix-50">
          <mxGeometry x="355" y="320" width="150" height="40" as="geometry" />
        </mxCell>
        <mxCell id="DLctD6dB3e4V0wkzgZix-70" value="&amp;lt;&amp;lt;Include&amp;gt;&amp;gt;" style="html=1;verticalAlign=bottom;endArrow=open;dashed=1;endSize=8;" edge="1" parent="DLctD6dB3e4V0wkzgZix-50" source="DLctD6dB3e4V0wkzgZix-53" target="DLctD6dB3e4V0wkzgZix-57">
          <mxGeometry relative="1" as="geometry">
            <mxPoint x="655" y="510" as="sourcePoint" />
            <mxPoint x="575" y="510" as="targetPoint" />
            <Array as="points">
              <mxPoint x="525" y="635" />
              <mxPoint x="605" y="635" />
            </Array>
          </mxGeometry>
        </mxCell>
        <mxCell id="DLctD6dB3e4V0wkzgZix-71" value="&amp;lt;&amp;lt;Include&amp;gt;&amp;gt;" style="html=1;verticalAlign=bottom;endArrow=open;dashed=1;endSize=8;" edge="1" parent="DLctD6dB3e4V0wkzgZix-50" source="DLctD6dB3e4V0wkzgZix-53" target="DLctD6dB3e4V0wkzgZix-63">
          <mxGeometry relative="1" as="geometry">
            <mxPoint x="745" y="560" as="sourcePoint" />
            <mxPoint x="665" y="560" as="targetPoint" />
          </mxGeometry>
        </mxCell>
        <mxCell id="DLctD6dB3e4V0wkzgZix-72" value="&amp;lt;&amp;lt;Include&amp;gt;&amp;gt;" style="html=1;verticalAlign=bottom;endArrow=open;dashed=1;endSize=8;" edge="1" parent="DLctD6dB3e4V0wkzgZix-50" source="DLctD6dB3e4V0wkzgZix-53" target="DLctD6dB3e4V0wkzgZix-64">
          <mxGeometry relative="1" as="geometry">
            <mxPoint x="745" y="560" as="sourcePoint" />
            <mxPoint x="405" y="520" as="targetPoint" />
          </mxGeometry>
        </mxCell>
        <mxCell id="DLctD6dB3e4V0wkzgZix-73" value="&amp;lt;&amp;lt;Include&amp;gt;&amp;gt;" style="html=1;verticalAlign=bottom;endArrow=open;dashed=1;endSize=8;" edge="1" parent="DLctD6dB3e4V0wkzgZix-50" source="DLctD6dB3e4V0wkzgZix-53" target="DLctD6dB3e4V0wkzgZix-65">
          <mxGeometry relative="1" as="geometry">
            <mxPoint x="445" y="190" as="sourcePoint" />
            <mxPoint x="365" y="190" as="targetPoint" />
          </mxGeometry>
        </mxCell>
        <mxCell id="DLctD6dB3e4V0wkzgZix-74" value="&amp;lt;&amp;lt;Include&amp;gt;&amp;gt;" style="html=1;verticalAlign=bottom;endArrow=open;dashed=1;endSize=8;" edge="1" parent="DLctD6dB3e4V0wkzgZix-50" source="DLctD6dB3e4V0wkzgZix-67" target="DLctD6dB3e4V0wkzgZix-68">
          <mxGeometry relative="1" as="geometry">
            <mxPoint x="445" y="190" as="sourcePoint" />
            <mxPoint x="365" y="190" as="targetPoint" />
          </mxGeometry>
        </mxCell>
        <mxCell id="DLctD6dB3e4V0wkzgZix-75" value="&amp;lt;&amp;lt;Include&amp;gt;&amp;gt;" style="html=1;verticalAlign=bottom;endArrow=open;dashed=1;endSize=8;" edge="1" parent="DLctD6dB3e4V0wkzgZix-50" source="DLctD6dB3e4V0wkzgZix-67" target="DLctD6dB3e4V0wkzgZix-69">
          <mxGeometry relative="1" as="geometry">
            <mxPoint x="445" y="190" as="sourcePoint" />
            <mxPoint x="365" y="190" as="targetPoint" />
            <Array as="points">
              <mxPoint x="430" y="399" />
            </Array>
          </mxGeometry>
        </mxCell>
        <mxCell id="DLctD6dB3e4V0wkzgZix-76" value="&amp;lt;&amp;lt;include&amp;gt;&amp;gt;" style="html=1;verticalAlign=bottom;endArrow=open;dashed=1;endSize=8;" edge="1" parent="DLctD6dB3e4V0wkzgZix-50" source="DLctD6dB3e4V0wkzgZix-51" target="DLctD6dB3e4V0wkzgZix-54">
          <mxGeometry relative="1" as="geometry">
            <mxPoint x="845" y="60" as="sourcePoint" />
            <mxPoint x="765" y="60" as="targetPoint" />
          </mxGeometry>
        </mxCell>
        <mxCell id="DLctD6dB3e4V0wkzgZix-77" value="&amp;lt;&amp;lt;include&amp;gt;&amp;gt;" style="html=1;verticalAlign=bottom;endArrow=open;dashed=1;endSize=8;exitX=0;exitY=0.5;exitDx=0;exitDy=0;entryX=0.955;entryY=0.29;entryDx=0;entryDy=0;entryPerimeter=0;" edge="1" parent="DLctD6dB3e4V0wkzgZix-50" source="DLctD6dB3e4V0wkzgZix-51" target="DLctD6dB3e4V0wkzgZix-55">
          <mxGeometry relative="1" as="geometry">
            <mxPoint x="845" y="60" as="sourcePoint" />
            <mxPoint x="765" y="60" as="targetPoint" />
          </mxGeometry>
        </mxCell>
        <mxCell id="DLctD6dB3e4V0wkzgZix-78" value="&amp;lt;&amp;lt;include&amp;gt;&amp;gt;" style="html=1;verticalAlign=bottom;endArrow=open;dashed=1;endSize=8;" edge="1" parent="DLctD6dB3e4V0wkzgZix-50" source="DLctD6dB3e4V0wkzgZix-51" target="DLctD6dB3e4V0wkzgZix-56">
          <mxGeometry relative="1" as="geometry">
            <mxPoint x="845" y="260" as="sourcePoint" />
            <mxPoint x="765" y="260" as="targetPoint" />
          </mxGeometry>
        </mxCell>
        <mxCell id="DLctD6dB3e4V0wkzgZix-79" value="&amp;lt;&amp;lt;include&amp;gt;&amp;gt;" style="html=1;verticalAlign=bottom;endArrow=open;dashed=1;endSize=8;exitX=0;exitY=0;exitDx=0;exitDy=0;" edge="1" parent="DLctD6dB3e4V0wkzgZix-50" source="DLctD6dB3e4V0wkzgZix-52" target="DLctD6dB3e4V0wkzgZix-57">
          <mxGeometry relative="1" as="geometry">
            <mxPoint x="825" y="645" as="sourcePoint" />
            <mxPoint x="745" y="645" as="targetPoint" />
          </mxGeometry>
        </mxCell>
        <mxCell id="DLctD6dB3e4V0wkzgZix-80" value="&amp;lt;&amp;lt;include&amp;gt;&amp;gt;" style="html=1;verticalAlign=bottom;endArrow=open;dashed=1;endSize=8;exitX=0.008;exitY=0.644;exitDx=0;exitDy=0;exitPerimeter=0;entryX=1.01;entryY=0.395;entryDx=0;entryDy=0;entryPerimeter=0;" edge="1" parent="DLctD6dB3e4V0wkzgZix-50" source="DLctD6dB3e4V0wkzgZix-52" target="DLctD6dB3e4V0wkzgZix-58">
          <mxGeometry relative="1" as="geometry">
            <mxPoint x="825" y="645" as="sourcePoint" />
            <mxPoint x="745" y="645" as="targetPoint" />
          </mxGeometry>
        </mxCell>
        <mxCell id="DLctD6dB3e4V0wkzgZix-81" value="&amp;lt;&amp;lt;include&amp;gt;&amp;gt;" style="html=1;verticalAlign=bottom;endArrow=open;dashed=1;endSize=8;exitX=0.324;exitY=0.992;exitDx=0;exitDy=0;exitPerimeter=0;entryX=0.854;entryY=0.106;entryDx=0;entryDy=0;entryPerimeter=0;" edge="1" parent="DLctD6dB3e4V0wkzgZix-50" source="DLctD6dB3e4V0wkzgZix-52" target="DLctD6dB3e4V0wkzgZix-60">
          <mxGeometry relative="1" as="geometry">
            <mxPoint x="825" y="645" as="sourcePoint" />
            <mxPoint x="745" y="645" as="targetPoint" />
          </mxGeometry>
        </mxCell>
        <mxCell id="DLctD6dB3e4V0wkzgZix-82" value="&amp;lt;&amp;lt;include&amp;gt;&amp;gt;" style="html=1;verticalAlign=bottom;endArrow=open;dashed=1;endSize=8;exitX=0.5;exitY=1;exitDx=0;exitDy=0;entryX=0.459;entryY=0.021;entryDx=0;entryDy=0;entryPerimeter=0;" edge="1" parent="DLctD6dB3e4V0wkzgZix-50" source="DLctD6dB3e4V0wkzgZix-52" target="DLctD6dB3e4V0wkzgZix-61">
          <mxGeometry relative="1" as="geometry">
            <mxPoint x="825" y="645" as="sourcePoint" />
            <mxPoint x="745" y="645" as="targetPoint" />
          </mxGeometry>
        </mxCell>
        <mxCell id="DLctD6dB3e4V0wkzgZix-83" value="&amp;lt;&amp;lt;extend&amp;gt;&amp;gt;" style="html=1;verticalAlign=bottom;endArrow=open;dashed=1;endSize=8;" edge="1" parent="DLctD6dB3e4V0wkzgZix-50" source="DLctD6dB3e4V0wkzgZix-59" target="DLctD6dB3e4V0wkzgZix-57">
          <mxGeometry relative="1" as="geometry">
            <mxPoint x="825" y="525" as="sourcePoint" />
            <mxPoint x="745" y="525" as="targetPoint" />
          </mxGeometry>
        </mxCell>
        <mxCell id="DLctD6dB3e4V0wkzgZix-84" value="Search account" style="ellipse;whiteSpace=wrap;html=1;" vertex="1" parent="DLctD6dB3e4V0wkzgZix-50">
          <mxGeometry x="700" y="370" width="130" height="50" as="geometry" />
        </mxCell>
        <mxCell id="DLctD6dB3e4V0wkzgZix-85" value="&amp;lt;&amp;lt;extend&amp;gt;&amp;gt;" style="html=1;verticalAlign=bottom;endArrow=open;dashed=1;endSize=8;" edge="1" parent="DLctD6dB3e4V0wkzgZix-50" source="DLctD6dB3e4V0wkzgZix-84" target="DLctD6dB3e4V0wkzgZix-54">
          <mxGeometry relative="1" as="geometry">
            <mxPoint x="675" y="60" as="sourcePoint" />
            <mxPoint x="595" y="60" as="targetPoint" />
          </mxGeometry>
        </mxCell>
        <mxCell id="DLctD6dB3e4V0wkzgZix-86" value="&amp;lt;&amp;lt;Include&amp;gt;&amp;gt;" style="html=1;verticalAlign=bottom;endArrow=open;dashed=1;endSize=8;" edge="1" parent="DLctD6dB3e4V0wkzgZix-50" source="DLctD6dB3e4V0wkzgZix-53" target="DLctD6dB3e4V0wkzgZix-66">
          <mxGeometry relative="1" as="geometry">
            <mxPoint x="317.42640687119274" y="426.7157287525383" as="sourcePoint" />
            <mxPoint x="384.05999999999995" y="378.4000000000001" as="targetPoint" />
          </mxGeometry>
        </mxCell>
        <mxCell id="DLctD6dB3e4V0wkzgZix-87" value="View progile" style="ellipse;whiteSpace=wrap;html=1;" vertex="1" parent="DLctD6dB3e4V0wkzgZix-50">
          <mxGeometry x="405" y="827.5" width="150" height="45" as="geometry" />
        </mxCell>
        <mxCell id="DLctD6dB3e4V0wkzgZix-88" value="Edit profile" style="ellipse;whiteSpace=wrap;html=1;" vertex="1" parent="DLctD6dB3e4V0wkzgZix-50">
          <mxGeometry x="275" y="930" width="140" height="50" as="geometry" />
        </mxCell>
        <mxCell id="DLctD6dB3e4V0wkzgZix-89" value="&amp;lt;&amp;lt;include&amp;gt;&amp;gt;" style="html=1;verticalAlign=bottom;endArrow=open;dashed=1;endSize=8;" edge="1" parent="DLctD6dB3e4V0wkzgZix-50" source="DLctD6dB3e4V0wkzgZix-51" target="DLctD6dB3e4V0wkzgZix-62">
          <mxGeometry relative="1" as="geometry">
            <mxPoint x="415" y="510" as="sourcePoint" />
            <mxPoint x="335" y="510" as="targetPoint" />
            <Array as="points">
              <mxPoint x="715" y="150" />
            </Array>
          </mxGeometry>
        </mxCell>
        <mxCell id="DLctD6dB3e4V0wkzgZix-90" value="Manage profile" style="ellipse;whiteSpace=wrap;html=1;" vertex="1" parent="DLctD6dB3e4V0wkzgZix-50">
          <mxGeometry x="165" y="820" width="150" height="60" as="geometry" />
        </mxCell>
        <mxCell id="DLctD6dB3e4V0wkzgZix-91" value="&amp;lt;&amp;lt;include&amp;gt;&amp;gt;" style="html=1;verticalAlign=bottom;endArrow=open;dashed=1;endSize=8;" edge="1" parent="DLctD6dB3e4V0wkzgZix-50" source="DLctD6dB3e4V0wkzgZix-90" target="DLctD6dB3e4V0wkzgZix-87">
          <mxGeometry relative="1" as="geometry">
            <mxPoint x="385" y="820" as="sourcePoint" />
            <mxPoint x="305" y="820" as="targetPoint" />
          </mxGeometry>
        </mxCell>
        <mxCell id="DLctD6dB3e4V0wkzgZix-92" value="&amp;lt;&amp;lt;include&amp;gt;&amp;gt;" style="html=1;verticalAlign=bottom;endArrow=open;dashed=1;endSize=8;" edge="1" parent="DLctD6dB3e4V0wkzgZix-50" source="DLctD6dB3e4V0wkzgZix-90" target="DLctD6dB3e4V0wkzgZix-88">
          <mxGeometry relative="1" as="geometry">
            <mxPoint x="385" y="820" as="sourcePoint" />
            <mxPoint x="305" y="820" as="targetPoint" />
          </mxGeometry>
        </mxCell>
        <mxCell id="DLctD6dB3e4V0wkzgZix-93" value="&amp;lt;&amp;lt;include&amp;gt;&amp;gt;" style="html=1;verticalAlign=bottom;endArrow=open;dashed=1;endSize=8;" edge="1" parent="DLctD6dB3e4V0wkzgZix-50" source="DLctD6dB3e4V0wkzgZix-67" target="DLctD6dB3e4V0wkzgZix-62">
          <mxGeometry relative="1" as="geometry">
            <mxPoint x="355" y="380" as="sourcePoint" />
            <mxPoint x="275" y="380" as="targetPoint" />
            <Array as="points">
              <mxPoint x="405" y="250" />
            </Array>
          </mxGeometry>
        </mxCell>
        <mxCell id="DLctD6dB3e4V0wkzgZix-94" value="&amp;lt;&amp;lt;include&amp;gt;&amp;gt;" style="html=1;verticalAlign=bottom;endArrow=open;dashed=1;endSize=8;" edge="1" parent="DLctD6dB3e4V0wkzgZix-50" source="DLctD6dB3e4V0wkzgZix-53" target="DLctD6dB3e4V0wkzgZix-62">
          <mxGeometry relative="1" as="geometry">
            <mxPoint x="355" y="590" as="sourcePoint" />
            <mxPoint x="275" y="590" as="targetPoint" />
            <Array as="points">
              <mxPoint x="565" y="370" />
            </Array>
          </mxGeometry>
        </mxCell>
        <mxCell id="DLctD6dB3e4V0wkzgZix-95" value="return" style="html=1;verticalAlign=bottom;endArrow=open;dashed=1;endSize=8;" edge="1" parent="DLctD6dB3e4V0wkzgZix-50" source="DLctD6dB3e4V0wkzgZix-90" target="DLctD6dB3e4V0wkzgZix-62">
          <mxGeometry relative="1" as="geometry">
            <mxPoint x="355" y="690" as="sourcePoint" />
            <mxPoint x="275" y="690" as="targetPoint" />
            <Array as="points">
              <mxPoint x="85" y="850" />
              <mxPoint x="85" y="170" />
              <mxPoint x="565" y="170" />
            </Array>
          </mxGeometry>
        </mxCell>
        <mxCell id="DLctD6dB3e4V0wkzgZix-96" value="&amp;lt;&amp;lt;include&amp;gt;&amp;gt;" style="html=1;verticalAlign=bottom;endArrow=open;dashed=1;endSize=8;" edge="1" parent="DLctD6dB3e4V0wkzgZix-50" source="DLctD6dB3e4V0wkzgZix-52" target="DLctD6dB3e4V0wkzgZix-62">
          <mxGeometry relative="1" as="geometry">
            <mxPoint x="565" y="530" as="sourcePoint" />
            <mxPoint x="485" y="530" as="targetPoint" />
            <Array as="points">
              <mxPoint x="915" y="470" />
              <mxPoint x="695" y="470" />
            </Array>
          </mxGeometry>
        </mxCell>
        <mxCell id="DLctD6dB3e4V0wkzgZix-97" value="Sign in new account" style="ellipse;whiteSpace=wrap;html=1;" vertex="1" parent="DLctD6dB3e4V0wkzgZix-50">
          <mxGeometry x="215" y="40" width="170" height="50" as="geometry" />
        </mxCell>
        <mxCell id="DLctD6dB3e4V0wkzgZix-98" value="" style="endArrow=none;html=1;" edge="1" parent="1" source="DLctD6dB3e4V0wkzgZix-49" target="DLctD6dB3e4V0wkzgZix-53">
          <mxGeometry width="50" height="50" relative="1" as="geometry">
            <mxPoint x="-4610" y="740" as="sourcePoint" />
            <mxPoint x="-4560" y="690" as="targetPoint" />
          </mxGeometry>
        </mxCell>
        <mxCell id="DLctD6dB3e4V0wkzgZix-99" value="" style="endArrow=none;html=1;" edge="1" parent="1" source="DLctD6dB3e4V0wkzgZix-49" target="DLctD6dB3e4V0wkzgZix-90">
          <mxGeometry width="50" height="50" relative="1" as="geometry">
            <mxPoint x="-4610" y="600" as="sourcePoint" />
            <mxPoint x="-4560" y="550" as="targetPoint" />
          </mxGeometry>
        </mxCell>
        <mxCell id="DLctD6dB3e4V0wkzgZix-100" value="" style="endArrow=none;html=1;exitX=0.5;exitY=0.5;exitDx=0;exitDy=0;exitPerimeter=0;" edge="1" parent="1" source="DLctD6dB3e4V0wkzgZix-49" target="DLctD6dB3e4V0wkzgZix-67">
          <mxGeometry width="50" height="50" relative="1" as="geometry">
            <mxPoint x="-4610" y="310" as="sourcePoint" />
            <mxPoint x="-4560" y="260" as="targetPoint" />
          </mxGeometry>
        </mxCell>
        <mxCell id="DLctD6dB3e4V0wkzgZix-101" value="" style="endArrow=none;html=1;" edge="1" parent="1" source="DLctD6dB3e4V0wkzgZix-52" target="DLctD6dB3e4V0wkzgZix-47">
          <mxGeometry width="50" height="50" relative="1" as="geometry">
            <mxPoint x="-3850" y="600" as="sourcePoint" />
            <mxPoint x="-3800" y="550" as="targetPoint" />
          </mxGeometry>
        </mxCell>
        <mxCell id="DLctD6dB3e4V0wkzgZix-102" value="" style="endArrow=none;html=1;" edge="1" parent="1" source="DLctD6dB3e4V0wkzgZix-51" target="DLctD6dB3e4V0wkzgZix-48">
          <mxGeometry width="50" height="50" relative="1" as="geometry">
            <mxPoint x="-3850" y="30" as="sourcePoint" />
            <mxPoint x="-3800" y="-20" as="targetPoint" />
          </mxGeometry>
        </mxCell>
        <mxCell id="DLctD6dB3e4V0wkzgZix-103" value="" style="endArrow=none;html=1;exitX=0.5;exitY=0.5;exitDx=0;exitDy=0;exitPerimeter=0;" edge="1" parent="1" source="DLctD6dB3e4V0wkzgZix-46" target="DLctD6dB3e4V0wkzgZix-97">
          <mxGeometry width="50" height="50" relative="1" as="geometry">
            <mxPoint x="-4660" y="30" as="sourcePoint" />
            <mxPoint x="-4610" y="-20" as="targetPoint" />
          </mxGeometry>
        </mxCell>
      </root>
    </mxGraphModel>
  </diagram>
</mxfile>
